<?xml version="1.0" encoding="utf-8"?>
<svg viewBox="-0.581 0 371.492 75.127" xmlns="http://www.w3.org/2000/svg">
  <defs>
    <linearGradient gradientUnits="userSpaceOnUse" x1="32.162" y1="2" x2="32.162" y2="72.66" id="gradient-0" gradientTransform="matrix(1, 0, 0, 1, 0, 0)">
      <stop offset="0" style="stop-color: rgba(0, 0, 0, 1)"/>
      <stop offset="1" style=""/>
    </linearGradient>
    <linearGradient gradientUnits="userSpaceOnUse" x1="185.383" y1="2" x2="185.383" y2="73.436" id="gradient-1">
      <stop offset="0" style="stop-color: rgb(242, 0, 255);"/>
      <stop offset="1" style="stop-color: rgb(141, 0, 169);"/>
    </linearGradient>
    <linearGradient gradientUnits="userSpaceOnUse" x1="32.194" y1="8.484" x2="32.194" y2="64.704" id="gradient-6" gradientTransform="matrix(0.999932, -0.011666, 0.00587, 0.50313, -10.340796, 19.514657)">
      <stop offset="0" style="stop-color: rgb(242, 0, 255);"/>
      <stop offset="1" style="stop-color: rgb(167, 0, 179);"/>
    </linearGradient>
  </defs>
  <path d="M 32.162 2 L 62.759 19.665 L 62.759 54.995 L 32.162 72.66 L 1.565 54.995 L 1.565 19.665 Z M 93.533 2.209 L 124.13 19.874 L 124.13 55.204 L 93.533 72.869 L 62.936 55.204 L 62.936 19.874 Z M 154.485 2.249 L 185.082 19.914 L 185.082 55.244 L 154.485 72.909 L 123.888 55.244 L 123.888 19.914 Z M 215.856 2.458 L 246.453 20.123 L 246.453 55.453 L 215.856 73.118 L 185.259 55.453 L 185.259 20.123 Z M 277.232 2.567 L 307.829 20.232 L 307.829 55.562 L 277.232 73.227 L 246.635 55.562 L 246.635 20.232 Z M 338.603 2.776 L 369.2 20.441 L 369.2 55.771 L 338.603 73.436 L 308.006 55.771 L 308.006 20.441 Z" style="stroke-width: 4px; fill-opacity: 0; fill: url(#gradient-0); stroke: url(#gradient-1);"/>
  <path d="M 22.475 53.905 C 21.335 53.905 20.292 53.62 19.347 53.05 C 18.402 52.48 17.645 51.722 17.075 50.777 C 16.505 49.832 16.22 48.79 16.22 47.65 L 16.22 27.76 C 16.22 26.62 16.505 25.577 17.075 24.632 C 17.645 23.687 18.402 22.93 19.347 22.36 C 20.292 21.79 21.335 21.505 22.475 21.505 L 48.53 21.505 L 48.53 27.49 L 23.735 27.49 C 23.255 27.49 22.872 27.625 22.587 27.895 C 22.302 28.165 22.16 28.555 22.16 29.065 L 22.16 46.345 C 22.16 46.825 22.302 47.207 22.587 47.492 C 22.872 47.777 23.255 47.92 23.735 47.92 L 48.53 47.92 L 48.53 53.905 Z M 77.608 53.889 L 77.608 27.744 C 77.608 26.604 77.893 25.561 78.463 24.616 C 79.033 23.671 79.791 22.914 80.736 22.344 C 81.681 21.774 82.723 21.489 83.863 21.489 L 103.708 21.489 C 104.848 21.489 105.898 21.774 106.858 22.344 C 107.818 22.914 108.583 23.671 109.153 24.616 C 109.723 25.561 110.008 26.604 110.008 27.744 L 110.008 53.889 L 104.023 53.889 L 104.023 42.999 L 83.548 42.999 L 83.548 53.889 L 77.608 53.889 Z M 83.548 37.059 L 104.023 37.059 L 104.023 28.014 C 104.023 27.864 103.963 27.736 103.843 27.631 C 103.723 27.526 103.588 27.474 103.438 27.474 L 84.088 27.474 C 83.938 27.474 83.811 27.526 83.706 27.631 C 83.601 27.736 83.548 27.864 83.548 28.014 L 83.548 37.059 Z M 164.948 53.889 L 155.183 42.234 L 162.968 42.234 L 171.428 52.224 L 171.428 53.889 Z M 139.118 53.889 L 139.118 21.534 L 165.218 21.534 C 166.358 21.534 167.408 21.819 168.368 22.389 C 169.328 22.959 170.093 23.716 170.663 24.661 C 171.233 25.606 171.518 26.649 171.518 27.789 L 171.518 36.519 C 171.518 37.659 171.233 38.709 170.663 39.669 C 170.093 40.629 169.328 41.386 168.368 41.941 C 167.408 42.496 166.358 42.774 165.218 42.774 L 145.058 42.819 L 145.058 53.889 Z M 145.598 36.789 L 164.948 36.789 C 165.098 36.789 165.233 36.744 165.353 36.654 C 165.473 36.564 165.533 36.444 165.533 36.294 L 165.533 28.014 C 165.533 27.864 165.473 27.736 165.353 27.631 C 165.233 27.526 165.098 27.474 164.948 27.474 L 145.598 27.474 C 145.448 27.474 145.321 27.526 145.216 27.631 C 145.111 27.736 145.058 27.864 145.058 28.014 L 145.058 36.294 C 145.058 36.444 145.111 36.564 145.216 36.654 C 145.321 36.744 145.448 36.789 145.598 36.789 Z M 200.501 53.889 L 200.501 21.489 L 225.341 21.489 C 226.481 21.489 227.524 21.774 228.469 22.344 C 229.414 22.914 230.171 23.671 230.741 24.616 C 231.311 25.561 231.596 26.604 231.596 27.744 L 231.596 34.089 C 231.596 34.479 231.566 34.854 231.506 35.214 C 231.446 35.574 231.341 35.919 231.191 36.249 C 231.701 36.939 232.114 37.659 232.429 38.409 C 232.744 39.159 232.901 39.909 232.901 40.659 L 232.901 47.634 C 232.901 48.774 232.616 49.816 232.046 50.761 C 231.476 51.706 230.711 52.464 229.751 53.034 C 228.791 53.604 227.741 53.889 226.601 53.889 L 200.501 53.889 Z M 206.981 47.904 L 226.331 47.904 C 226.481 47.904 226.616 47.851 226.736 47.746 C 226.856 47.641 226.916 47.514 226.916 47.364 L 226.916 40.929 C 226.916 40.779 226.856 40.651 226.736 40.546 C 226.616 40.441 226.481 40.389 226.331 40.389 L 206.981 40.389 C 206.831 40.389 206.704 40.441 206.599 40.546 C 206.494 40.651 206.441 40.779 206.441 40.929 L 206.441 47.364 C 206.441 47.514 206.494 47.641 206.599 47.746 C 206.704 47.851 206.831 47.904 206.981 47.904 Z M 206.981 34.404 L 225.071 34.404 C 225.221 34.404 225.341 34.351 225.431 34.246 C 225.521 34.141 225.566 34.014 225.566 33.864 L 225.566 28.014 C 225.566 27.864 225.521 27.736 225.431 27.631 C 225.341 27.526 225.221 27.474 225.071 27.474 L 206.981 27.474 C 206.831 27.474 206.704 27.526 206.599 27.631 C 206.494 27.736 206.441 27.864 206.441 28.014 L 206.441 33.864 C 206.441 34.014 206.494 34.141 206.599 34.246 C 206.704 34.351 206.831 34.404 206.981 34.404 Z M 267.322 53.889 C 266.182 53.889 265.139 53.604 264.194 53.034 C 263.249 52.464 262.492 51.706 261.922 50.761 C 261.352 49.816 261.067 48.774 261.067 47.634 L 261.067 27.744 C 261.067 26.604 261.352 25.561 261.922 24.616 C 262.492 23.671 263.249 22.914 264.194 22.344 C 265.139 21.774 266.182 21.489 267.322 21.489 L 287.212 21.489 C 288.352 21.489 289.394 21.774 290.339 22.344 C 291.284 22.914 292.042 23.671 292.612 24.616 C 293.182 25.561 293.467 26.604 293.467 27.744 L 293.467 47.634 C 293.467 48.774 293.182 49.816 292.612 50.761 C 292.042 51.706 291.284 52.464 290.339 53.034 C 289.394 53.604 288.352 53.889 287.212 53.889 Z M 267.547 47.904 L 286.897 47.904 C 287.047 47.904 287.182 47.851 287.302 47.746 C 287.422 47.641 287.482 47.514 287.482 47.364 L 287.482 28.014 C 287.482 27.864 287.422 27.736 287.302 27.631 C 287.182 27.526 287.047 27.474 286.897 27.474 L 267.547 27.474 C 267.397 27.474 267.269 27.526 267.164 27.631 C 267.059 27.736 267.007 27.864 267.007 28.014 L 267.007 47.364 C 267.007 47.514 267.059 47.641 267.164 47.746 C 267.269 47.851 267.397 47.904 267.547 47.904 Z M 322.465 53.889 L 322.465 21.489 L 328.99 21.489 L 348.88 45.159 L 348.88 21.489 L 354.865 21.489 L 354.865 53.889 L 348.34 53.889 L 328.405 30.174 L 328.405 53.889 Z" style="fill: url(#gradient-6); white-space: pre;"/>
</svg>